<?xml version="1.0" encoding="utf-8"?>
<!-- Generator: Adobe Illustrator 17.0.0, SVG Export Plug-In . SVG Version: 6.00 Build 0)  -->
<!DOCTYPE svg PUBLIC "-//W3C//DTD SVG 1.1//EN" "http://www.w3.org/Graphics/SVG/1.1/DTD/svg11.dtd">
<svg version="1.1" id="Layer_1" xmlns="http://www.w3.org/2000/svg" xmlns:xlink="http://www.w3.org/1999/xlink" x="0px" y="0px"
	 width="526px" height="254px" viewBox="0 0 526 254" enable-background="new 0 0 526 254" xml:space="preserve">
<rect y="0.569" fill="#0096D6" width="526" height="254"/>
<title  xml:lang="en">AT&amp;T</title>
<radialGradient id="backclear_1_" cx="-26.8128" cy="416.6593" r="0.6" fx="-26.6128" fy="416.5593" gradientTransform="matrix(226.9922 0 0 -200.2671 6210.5918 83572.7188)" gradientUnits="userSpaceOnUse">
	<stop  offset="0" style="stop-color:#32A5DD"/>
	<stop  offset="0.7" style="stop-color:#32A5DD"/>
	<stop  offset="1" style="stop-color:#2277A0"/>
</radialGradient>
<path id="backclear" fill="url(#backclear_1_)" d="M235.959,109.826c0-1.843-0.234-5.502-1.102-9.252
	c-0.604-2.508-1.295-5.016-2.074-7.465c1.354,4.614,1.16,7.872,1.16,9.108c0,5.654-7.043,40.154-75.955,46.435
	c-5.971,0.521-49.752,1.213-87.832-8.414c-25.336-6.4-50.76-18.796-55.57-36.005c-0.75-2.681-0.398-5.159,0.176-7.462
	c-1.934,6.858-3.229,14.039-3.832,21.39c0.428,18.099,16.166,39.193,44.959,48.304c32.918,10.354,53.127,10.699,100.969,0.029
	C236.709,148.682,235.959,113.719,235.959,109.826z M58.367,206.133c-18.82-7.787-31.846-20.73-37.066-30.182
	c4.811,10.201,11.098,19.629,18.592,27.902c24.527,23.057,62.232,25.852,79.559,25.852c73.324,0,99.498-38.537,105.434-48.855
	c1.096-2.074,2.133-4.178,3.088-6.316C216.383,198.434,156.201,246.545,58.367,206.133z M138.154,191.021
	c-22.195,0.785-61.254-6.855-85.869-16.922c-19.799-8.063-39.398-23.801-41.479-38.82c0.234,3.605,0.639,7.174,1.213,10.666
	c12.135,66.211,95.555,62.432,109.91,60.85c104.918-11.648,113.936-56.438,115.324-65.285c0.199-1.852,0.398-3.691,0.545-5.566
	C235.93,147.727,218.199,188.145,138.154,191.021 M43.297,57.141c0,10.374,15.07,26.944,58.799,26.944
	c25.916,0,46.84-5.016,62.637-10.26c25.336-8.417,37.869-18.709,37.412-26.37c-0.059-1.181-0.521-3.114-1.928-4.644
	c-5.625-5.045-11.76-9.539-18.311-13.374c4.33,2.508,6.779,5.449,6.779,8.707c0,11.411-27.902,21.876-64.342,22.828
	c-36.434,0.92-66.633-8.045-67.447-19.427c-0.258-3.779,2.449-7.494,7.611-10.781c-3.949,2.446-7.723,5.098-11.297,7.983
	C43.063,47.163,43.297,56.042,43.297,57.141z M19.859,89.365c0-4.872,0.691-8.273,1.986-11.332
	c2.221-4.523,4.699-8.903,7.471-13.081c-0.721,1.178-1.125,2.531-1.125,4.146c0,10.579,25.91,24.331,61.283,28.825
	c11.988,1.529,43.723,5.856,68.279,3.835c49.605-4.093,60.615-21.416,60.615-32.66c0-3.082-1.664-7.576-3.34-10.198
	c2.25,2.994,4.377,6.076,6.34,9.281c3.809,6.601,3.316,9.223,3.316,10.374c0,22.998-42.809,37.992-71.426,45.829
	C79.783,144.445,19.859,117.091,19.859,89.365z"/>
<radialGradient id="backstripes_1_" cx="-26.8112" cy="416.6253" r="0.6" fx="-26.6112" fy="416.5253" gradientTransform="matrix(225.1525 0 0 -195.3101 6159.999 81500.6797)" gradientUnits="userSpaceOnUse">
	<stop  offset="0" style="stop-color:#0096D6"/>
	<stop  offset="0.7" style="stop-color:#0096D6"/>
	<stop  offset="1" style="stop-color:#006C9B"/>
</radialGradient>
<path id="backstripes" fill="url(#backstripes_1_)" d="M11.533,138.568c-0.316-1.102-0.574-2.191-0.727-3.289
	c0.176,2.797,0.463,5.539,0.838,8.27C11.475,141.879,11.445,140.238,11.533,138.568z M14.703,97.005
	c-0.721,2.531-1.33,5.13-1.875,7.752c0.287-1.011,0.75-2.106,1.324-3.29C14.123,99.915,14.357,98.415,14.703,97.005z
	 M21.359,176.033c2.625,5.625,5.736,10.98,9.193,16.031c-1.869-3.023-3.428-6.17-4.67-9.428
	C24.014,180.334,22.514,178.107,21.359,176.033z M35.686,79.881c-1.412-1.069-2.648-2.162-3.691-3.258
	c-4.928,3.401-9.018,7.031-12.105,10.863c-0.029,0.606-0.029,1.242-0.029,1.878c0,1.207,0.117,2.449,0.352,3.656
	C23.984,88.785,29.17,84.229,35.686,79.881z M215.633,78.783c3.059,1.591,5.824,3.287,8.273,5.106
	c0.521-1.729,0.779-3.516,0.779-5.335c0-1.122,0.457-3.721-3.17-10.146c-1.963-3.199-4.061-6.313-6.387-9.354
	c1.629,2.581,3.24,6.99,3.24,10.043C218.369,72.009,217.619,75.355,215.633,78.783L215.633,78.783z M29.229,65.066
	c-0.316,0.486-0.633,0.979-0.949,1.471l0.545-0.636C28.941,65.611,29.082,65.353,29.229,65.066z M188.539,36.759
	c4.523,1.846,8.678,4.122,12.334,6.917l-0.627-0.835c-3.668-3.287-7.523-6.343-11.596-9.138c-1.037-0.636-2.127-1.242-3.258-1.787
	C187.068,33.417,188.164,35.031,188.539,36.759z M209.439,195.984c-0.293,1.641-0.691,3.252-1.154,4.846
	c9.281-8.273,14.326-16.055,16.57-19.922l0.234-0.434l-0.088-0.832C221.545,184.74,216.324,190.447,209.439,195.984z
	 M71.803,195.984c0-5.021,1.213-9.803,3.404-14.268c-2.83-0.756-5.596-1.559-8.273-2.391c-2.162,4.699-3.346,9.738-3.346,14.953
	c0,2.367,0.258,4.699,0.721,6.949c2.795,0.896,5.619,1.646,8.443,2.309C72.119,201.088,71.803,198.58,71.803,195.984z
	 M234.916,100.808c-0.264-1.069-0.521-2.136-0.809-3.229c-0.164-0.378-0.34-0.75-0.545-1.099c0.492,2.827,0.381,4.813,0.381,5.736
	c0,1.843-0.756,6.806-4.213,12.829c1.582,1.816,2.971,3.715,4.119,5.675c2.162-5.622,2.109-9.712,2.109-10.896
	C235.959,108.015,235.725,104.491,234.916,100.808L234.916,100.808z M234.828,145.025c-1.061,2.297-2.479,4.84-4.266,7.488
	c0.492,1.646,0.809,3.258,0.984,4.793c1.869-3.211,3.105-6.176,3.949-8.678C235.32,147.498,235.115,146.291,234.828,145.025z
	 M222.576,169.119c-0.627-1.699-1.324-3.375-2.127-5.016c-3.633,3.316-8.01,6.627-13.201,9.715c0.779,2.074,1.441,4.23,1.898,6.398
	C214.625,176.549,219.037,172.811,222.576,169.119z M51.482,71.174c11.994-5.479,26.719-9.797,44.098-11.616
	c-5.965-0.779-11.443-1.813-16.283-3.114c-11.391,3.144-22.078,6.917-31.418,11.273C48.887,68.872,50.094,70.023,51.482,71.174z
	 M22.801,165.891c0-3.258,0.369-6.457,1.037-9.568c-1.641-1.559-3.199-3.117-4.582-4.734c-1.037,4.617-1.324,9.258-0.779,13.898
	c1.5,2.941,3.17,5.648,5.016,8.215C23.029,171.135,22.801,168.51,22.801,165.891z M18.535,112.31
	c-2.971,4.063-5.221,8.502-6.568,13.345c0.34,1.471,0.803,2.962,1.348,4.439c1.705-4.817,4.529-9.545,8.273-14.04
	C20.469,114.841,19.432,113.605,18.535,112.31 M57.875,44.684c-5.098,2.136-9.68,4.356-13.6,6.545
	c-0.691,2.106-0.896,3.806-0.949,4.872c5.01-2.596,11.01-5.25,17.695-7.84C59.633,47.107,58.602,45.926,57.875,44.684z
	 M201.512,50.942c-5.221-1.816-11.443-3.144-18.393-4.066c-8.098,6.226-24.475,11.241-44.877,13.228
	c12.826,1.304,28.453,3.519,43.348,6.979C192.863,61.635,199.52,55.958,201.512,50.942z M181.25,184.711
	c1.037,2.742,1.699,5.596,1.957,8.502c3.34-1.236,6.451-2.531,9.369-3.855c-0.375-2.631-1.037-5.191-1.992-7.699
	C187.643,182.748,184.561,183.791,181.25,184.711z M171.102,221.924c5.332-1.816,10.201-3.867,14.643-6.053
	c1.705-2.391,3.111-4.898,4.236-7.529c-3.691,1.852-7.67,3.609-11.848,5.168C176.234,216.533,173.867,219.357,171.102,221.924z
	 M38.598,194.771c0.979,4.154,2.531,8.127,4.588,11.988c4.031,3.34,8.355,6.229,12.85,8.707c-3.258-4.383-5.766-9.105-7.348-14.063
	C44.996,199.33,41.65,197.104,38.598,194.771z M215.111,130.785c2.684,2.25,4.986,4.461,6.92,6.682
	c2.795-2.65,5.045-5.244,6.803-7.689c-1.324-2.312-2.877-4.615-4.758-6.95C221.691,125.479,218.75,128.192,215.111,130.785
	L215.111,130.785z M26,149.08c2.824-7.254,7.441-14.029,13.518-20.115c-2.045-1.037-4.002-2.159-5.854-3.287
	c-5.332,5.828-9.451,12.105-12.076,18.597C22.912,145.916,24.412,147.533,26,149.08z M233.275,94.694
	c-0.117-0.372-0.258-0.773-0.381-1.151c0.094,0.316,0.176,0.606,0.234,0.894L233.275,94.694z M76.584,212.783
	c-3.135-1.008-6.311-2.098-9.539-3.287c2.566,5.514,6.516,10.553,11.555,14.936c4.184,1.148,8.303,2.074,12.311,2.795
	C84.828,223.283,79.9,218.35,76.584,212.783z M108.523,100.202c-8.039-0.835-14.783-1.734-19.049-2.279
	c-2.771-0.343-5.479-0.75-8.104-1.213c-15.305,4.843-28.74,12.17-39.234,20.897c2.139,1.184,4.389,2.312,6.779,3.378
	C64.191,109.855,85.063,102.279,108.523,100.202 M46.666,188.83c0-5.443,0.949-10.805,2.801-15.932
	c-3.088-1.354-6.117-2.918-9.082-4.588c-1.957,5.215-3,10.699-3,16.318c0,1.119,0.059,2.221,0.146,3.311
	c3.023,2.279,6.199,4.295,9.48,6.082C46.783,192.299,46.666,190.564,46.666,188.83L46.666,188.83z M78.547,142.166
	c-2.824-0.574-5.619-1.236-8.391-1.928c-1.787-0.463-3.545-0.92-5.303-1.447c-9.223,6.404-16.547,14.104-21.299,22.688
	c2.912,1.441,6.023,2.766,9.311,3.949c2.766-4.898,6.398-9.422,10.922-13.406C68.053,148.283,73.016,144.99,78.547,142.166z
	 M50.217,87.897c-8.912,4.348-17.619,9.768-24.621,16.397c1.066,1.356,2.273,2.681,3.633,3.979
	c7.635-6.744,17.268-12.8,27.926-17.701C54.711,89.708,52.373,88.814,50.217,87.897z M198.887,139.576
	c-5.074,2.045-10.869,3.885-17.467,5.414c4.787,2.912,9.111,6.17,12.855,9.773c5.385-2.332,10.084-4.758,14.156-7.207
	C205.543,144.732,202.373,142.049,198.887,139.576z M185.457,113.749c6.023-2.452,11.848-5.159,17.092-8.159
	c-5.449-2.909-11.789-5.561-19.143-7.781c-7.119,1.758-15.592,3.114-25.652,3.949c-2.994,0.258-6.076,0.401-9.252,0.489
	c7.037,1.327,13.781,3.146,20.145,5.244C174.816,109.539,180.383,111.613,185.457,113.749z M210.646,100.377
	c5.736-4.242,10.119-8.941,12.369-14.101c-2.742-1.699-5.859-3.284-9.229-4.752c-3.34,4.289-8.818,8.531-17.379,12.076
	C201.453,95.649,206.24,97.922,210.646,100.377z M146.105,148.916c-7.23-0.029-17.063-0.352-28.154-1.213
	c-19.658,2.273-36.381,11.068-45.891,23.232c3.146,0.721,6.252,1.324,9.311,1.84c10.025-11.004,26.977-18.246,46.201-18.246
	c14.039,0,26.871,3.832,36.668,10.207c3.803-0.949,7.441-1.957,10.84-3C167.27,155.742,157.32,151.248,146.105,148.916z
	 M143.832,79.591c7.752-1.696,14.73-3.718,20.9-5.766c3.398-1.122,6.539-2.303,9.457-3.454c-8.678-1.614-16.406-2.625-21.621-3.085
	c-19.828-1.819-49.348,3.826-56.988,5.417c-2.361,0.463-13.137,2.707-26.285,7.289c3.082,0.926,6.516,1.705,10.23,2.335
	c11.906-3.343,24.217-5.215,35.883-5.215C123.137,77.113,133.027,77.918,143.832,79.591z M153.26,124.383
	c1.934-0.548,3.949-1.093,5.994-1.699c-8.818-1.901-18.188-2.909-27.932-2.909c-18.422,0-35.625,3.659-50.156,10.002
	C101.984,132.686,126.74,131.617,153.26,124.383z"/>
<radialGradient id="forestripes_1_" cx="-26.8132" cy="416.8201" r="0.6" fx="-26.6132" fy="416.7201" gradientTransform="matrix(227.5371 0 0 -227.5688 6225.3193 94982.8438)" gradientUnits="userSpaceOnUse">
	<stop  offset="0" style="stop-color:#FFFFFF"/>
	<stop  offset="0.55" style="stop-color:#FFFFFF"/>
	<stop  offset="1" style="stop-color:#B1B4B6"/>
</radialGradient>
<path id="forestripes" fill="url(#forestripes_1_)" d="M14.762,96.771c1.811-6.516,4.207-12.768,7.084-18.738
	c-1.295,3.059-1.986,6.46-1.986,11.332c0,27.727,59.924,55.081,133.4,35.019c28.617-7.837,71.426-22.831,71.426-45.829
	c0-1.151,0.492-3.773-3.316-10.374c4.758,7.752,8.59,16.081,11.414,24.929c1.354,4.614,1.16,7.872,1.16,9.108
	c0,5.654-7.043,40.154-75.955,46.435c-5.971,0.521-49.752,1.213-87.832-8.414c-25.336-6.4-50.76-18.796-55.57-36.005
	C13.836,101.552,14.187,99.074,14.762,96.771z M121.93,206.795c-14.355,1.582-97.775,5.361-109.91-60.85
	c1.705,10.576,4.869,20.631,9.281,30.006c5.221,9.451,18.246,22.395,37.066,30.182c97.834,40.412,158.016-7.699,169.605-31.6
	c4.664-10.289,7.84-21.381,9.281-33.023C235.865,150.357,226.848,195.146,121.93,206.795z M119.451,229.705
	c-17.326,0-55.031-2.795-79.559-25.852c20.813,23.027,50.936,37.5,84.428,37.5c43.576,0,81.457-24.504,100.564-60.504
	C218.949,191.168,192.775,229.705,119.451,229.705z M52.285,174.1c24.615,10.066,63.674,17.707,85.869,16.922
	c80.045-2.877,97.775-43.295,99.645-55.078c0.176-2.771,0.287-5.566,0.287-8.364c0-9.305-1.09-18.331-3.229-27.006
	c0.867,3.75,1.102,7.409,1.102,9.252c0,3.894,0.75,38.856-79.102,56.668c-47.842,10.67-68.051,10.324-100.969-0.029
	c-28.793-9.111-44.531-30.205-44.959-48.304c-0.27,3.114-0.381,6.252-0.381,9.419c0,2.598,0.059,5.135,0.258,7.7
	C12.887,150.299,32.486,166.037,52.285,174.1z M89.475,97.922c11.988,1.529,43.723,5.856,68.279,3.835
	c49.605-4.093,60.615-21.416,60.615-32.66c0-3.082-1.664-7.576-3.34-10.198c-4.412-5.827-9.398-11.215-14.813-16.087
	c1.406,1.529,1.869,3.463,1.928,4.644c0.457,7.661-12.076,17.953-37.412,26.37c-15.797,5.244-36.721,10.26-62.637,10.26
	c-43.729,0-58.799-16.57-58.799-26.944c0-1.099-0.234-9.979,9.914-18.393c-9.281,7.406-17.355,16.257-23.895,26.203
	c-0.721,1.178-1.125,2.531-1.125,4.146C28.191,79.676,54.102,93.428,89.475,97.922z M56.896,41.546
	c0.814,11.382,31.014,20.347,67.447,19.427c36.439-0.952,64.342-11.417,64.342-22.828c0-3.258-2.449-6.199-6.779-8.707
	c-16.887-9.949-36.574-15.653-57.586-15.653c-21.967,0-42.434,6.229-59.813,16.98C59.346,34.052,56.639,37.767,56.896,41.546z"/>
<path fill="#FFFFFF" d="M339.008,168.065c-0.732-2.063-0.938-4.336-0.99-5.332l-0.064-41.285c0-19.837-14.039-26.897-27.17-26.897
	c-10.4,0-19.881,2.725-25.986,6.797c-1.105,0.792-1.233,1.979-0.645,2.941l4.834,6.539c1.188,1.326,2.371,0.964,3.609,0.044
	c4.77-2.971,10.406-4.676,16.143-4.676c16.201,0,15.727,12.686,15.727,14.335c0,0.841-0.51,1.049-1.119,1.037l-2.502-0.053
	c-12.568-0.463-44.467,3.82-44.467,29.106c0,14.848,12.387,22.424,23.93,22.424c11.191,0,20.191-4.441,24.706-9.908
	c0.251-0.304,0.543-0.006,0.542,0.146c-0.006,0.691,0,2.262,0.146,3.627c0.248,3.344,0.902,4.381,2.514,4.529l8.977,0.006
	c1.166,0,2.115-0.943,2.115-2.068C339.307,169.014,339.008,168.064,339.008,168.065L339.008,168.065z M325.045,138.656
	c-1.834,12.967-8.215,20.443-19.998,22.377c-8.297,1.365-15.814-2.051-16.219-10.934c-0.451-9.762,10.893-17.959,31.828-17.059
	c0,0,1.541,0.09,2.572,0.217C325.587,133.548,325.593,134.783,325.045,138.656z"/>
<path fill="#FFFFFF" d="M370.774,74.889l-9.384,0.718c-1.131,0-2.104,0.967-2.104,2.15v15.735c0,0.624-0.51,1.122-1.137,1.122
	l-11.355-0.012c-1.189,0-2.162,0.967-2.162,2.15l-0.023,7.942c0.023,0.589,0.264,1.128,0.68,1.512
	c0.422,0.401,0.973,0.612,1.553,0.601h11.32c0.621,0,1.131,0.504,1.131,1.122l-0.006,37.927c0,20.355,15.322,27.615,28.764,27.615
	c0,0,1.582,0.029,2.801-0.094c1.219-0.111,2.133-0.961,2.133-2.145v-7.447c0-1.184-0.951-2.133-2.391-2.133
	c-11.543,0-17.625-6.117-17.625-18.176V107.93c0-0.618,0.504-1.122,1.131-1.122h18.094c1.189,0,2.156-0.967,2.156-2.147v-7.89
	c0-1.189-0.967-2.156-2.156-2.156h-18.041c-0.656,0-1.184-0.521-1.184-1.175V77.107C373.01,75.956,372.067,74.889,370.774,74.889
	L370.774,74.889z"/>
<path fill="#FFFFFF" d="M439.068,154.397c-3.715,4.418-7.805,7.397-13.74,7.397c-7.037,0-12.545-5.063-12.545-11.508
	c0-5.719,2.443-9.123,9.68-13.488c0.504-0.293,1.066-0.234,1.418,0.117l15.1,15.803
	C439.531,153.372,439.282,153.669,439.068,154.397L439.068,154.397z M426.723,121.452c-0.404,0.22-1.116,0.135-1.438-0.208
	c-2.221-2.429-4.901-6.353-4.901-9.151c0-4.752,3.398-8.452,8.396-8.452c4.822,0,7.424,3.328,7.424,7.392
	C436.203,115.785,431.832,118.602,426.723,121.452z M469.502,167.537l-14.385-14.854c-0.422-0.346-0.598-1.055-0.205-1.623
	l10.975-18.477c0.246-0.498,0.27-0.871,0.27-1.037c0-1.164-0.943-2.119-2.115-2.119h-8.039c-0.814,0-1.523,0.42-1.916,1.1
	l-6.955,12.014c-0.316,0.457-1.008,0.574-1.512,0.234l-11.232-11.561c-0.358-0.671-0.073-0.905,0.167-1.548
	c6.419-3.754,13.655-9.18,13.655-18.754c0-10.986-7.887-18.36-19.623-18.36c-11.502,0-20.221,7.696-20.221,19.181
	c0,5.06,2.109,10.093,6.645,15.877c0.1,0.719-0.047,0.983-0.275,1.165c-9.568,5.434-14.391,12.635-14.391,21.442
	c0,14.941,12.498,22.764,24.861,22.764c8.479,0,15.094-3.258,21.527-10.655c0.445-0.448,1.148-0.448,1.582-0.015l7.822,8.098
	c0.516,0.51,1.055,0.721,1.611,0.721l10.219,0.012c1.178,0,2.139-0.961,2.139-2.127C470.105,168.463,469.877,167.93,469.502,167.537
	L469.502,167.537z"/>
<path fill="#FFFFFF" d="M514.824,163.787c0-0.838-0.623-2.294-2.613-2.127c-11.549,0-17.402-6.123-17.402-18.182V107.93
	c0-0.618,0.51-1.122,1.131-1.122h18.094c1.195,0,2.168-0.967,2.168-2.147v-7.89c0-1.189-0.973-2.156-2.168-2.156h-18.035
	c-0.662,0-1.189-0.521-1.189-1.175V77.107c0-1.673-1.409-2.288-2.309-2.218l-9.258,0.718c-1.143,0-2.115,0.967-2.115,2.15v15.735
	c0,0.624-0.51,1.122-1.125,1.122l-11.367-0.012c-1.184,0-2.15,0.967-2.15,2.15l-0.018,7.942c-0.003,1.248,1.082,2.112,2.221,2.112
	h11.32c0.615,0,1.125,0.504,1.125,1.122v37.927c0,20.355,15.322,27.615,28.758,27.615c0,0,1.594,0.029,2.812-0.094
	c1.213-0.111,2.121-0.961,2.121-2.145V163.787z"/>
<rect y="272" fill="#00628C" width="526" height="5.5"/>
<rect x="-61.5" y="0.569" fill="#E3E3E3" width="47" height="46.931"/>
</svg>
